<svg width="168" height="49" viewBox="0 0 168 49" fill="none" xmlns="http://www.w3.org/2000/svg">
<g clip-path="url(#clip0_501_14)">
<path d="M128.49 2.64L129.12 18.52C129.123 18.7315 129.197 18.9358 129.33 19.1L138.33 30.83L140.64 40C140.678 40.1613 140.755 40.3106 140.865 40.4345C140.975 40.5584 141.114 40.6531 141.27 40.71L156.45 46.29L132.6 48.29L115.21 35.89L117.58 15.42L128.49 2.64ZM129.4 0L116.61 15L114.13 36.37L132.31 49.37L161.11 47L141.62 39.82L139.3 30.42L130.13 18.53L129.4 0Z" fill="white"/>
<path d="M130.13 18.48L129.41 0L130.13 18.48Z" fill="white"/>
<path d="M131.81 17.87L140.65 29.33C140.789 29.5224 140.891 29.7396 140.95 29.97L143.06 38.49L161.7 45.35C161.903 45.4222 162.09 45.5344 162.25 45.68L167.51 39.77L165.91 23.14L152.68 13.83L152 10.92L131.14 0.839996L131.81 17.87Z" fill="white"/>
<path d="M5.17406 17.8064C6.24839 17.3252 7.41197 17.0756 8.58914 17.0737C9.61906 17.0555 10.6461 17.1878 11.6378 17.4662C12.4601 17.7024 13.2444 18.0549 13.9669 18.513C15.3846 19.4036 16.498 20.7041 17.1595 22.2421H14.9221C14.3859 21.2701 13.5881 20.4678 12.6192 19.9261C11.6016 19.3544 10.4496 19.0652 9.28262 19.0887C8.19137 19.0592 7.10541 19.2506 6.08998 19.6514C5.24706 20.0018 4.4887 20.5282 3.86561 21.1953C2.58958 22.6322 1.92317 24.5094 2.0076 26.4292C1.91182 28.346 2.56923 30.2243 3.83944 31.663C4.50494 32.376 5.3181 32.9351 6.22211 33.3012C7.12612 33.6674 8.09917 33.8317 9.07327 33.7827C10.7019 33.8148 12.2854 33.2466 13.522 32.1864C14.1673 31.6491 14.681 30.9712 15.0235 30.2045C15.366 29.4379 15.5282 28.6029 15.4978 27.7638H8.78541V25.8796H17.3296V35.5491H15.4324V32.278C14.4282 33.8284 12.8852 34.9518 11.1014 35.4314C10.2439 35.6312 9.36479 35.7235 8.48446 35.7061C7.34644 35.718 6.21862 35.4906 5.17406 35.0388C4.11003 34.5763 3.15579 33.8941 2.37396 33.0369C0.770437 31.2431 -0.0780701 28.8992 0.00565587 26.4946C-0.0566816 24.0793 0.820466 21.734 2.45247 19.9523C3.19902 19.0539 4.12632 18.3228 5.17406 17.8064V17.8064Z" fill="white"/>
<path d="M26.4495 35.4837H24.3953V17.2962H33.1096C34.7362 17.2171 36.3304 17.7704 37.5584 18.8401C38.1152 19.3717 38.5499 20.018 38.8324 20.7342C39.1148 21.4503 39.2381 22.2194 39.1939 22.988C39.2746 23.9616 39.0445 24.9358 38.5367 25.7704C38.0289 26.605 37.2695 27.2572 36.3677 27.633C35.8618 27.8561 35.3361 28.0314 34.7975 28.1564L39.5734 35.4837H37.1658L32.7694 28.4966H26.4495V35.4837ZM26.4495 26.56H32.7432C33.5147 26.6487 34.2957 26.5263 35.0032 26.206C35.7106 25.8857 36.3178 25.3795 36.7602 24.7413C37.1261 24.0085 37.2485 23.178 37.1096 22.3708C36.9708 21.5636 36.5779 20.8217 35.9882 20.2533C35.1022 19.5498 33.991 19.1918 32.861 19.2458H26.4495V26.56Z" fill="white"/>
<path d="M62.0919 35.4837H59.8152L57.5908 30.2499H48.5756L46.3512 35.4837H44.0745L51.7944 17.2961H54.4113L62.0919 35.4837ZM56.8581 28.3134L53.1421 19.442L49.4391 28.3134H56.8581Z" fill="white"/>
<path d="M81.6009 17.2961L74.2342 35.4837H71.9052L64.5386 17.2961H66.7891L73.0828 33.1547L79.3765 17.2961H81.6009Z" fill="white"/>
<path d="M102 35.4837H99.7625L97.5381 30.2499H88.5228L86.2984 35.4837H84.0217L91.7416 17.2961H94.3585L102 35.4837ZM96.7661 28.3134L93.0632 19.442L89.3472 28.3134H96.7661Z" fill="white"/>
</g>
<defs>
<clipPath id="clip0_501_14">
<rect width="168" height="49" fill="white"/>
</clipPath>
</defs>
</svg>
