<svg width="167" height="50" viewBox="0 0 167 50" fill="none" xmlns="http://www.w3.org/2000/svg">
<g clip-path="url(#clip0_501_2)">
<path d="M165.69 23.17C165.674 23.0311 165.63 22.8971 165.559 22.7765C165.488 22.656 165.393 22.5515 165.28 22.47L152.82 13.71L152.21 11.26C152.174 11.1225 152.109 10.9943 152.019 10.8839C151.929 10.7735 151.817 10.6836 151.69 10.62L130 0.0999848H129.93C129.834 0.0858937 129.736 0.0858937 129.64 0.0999848V0.0999848C129.516 0.10262 129.393 0.12981 129.28 0.179985H129.2H129.11C129.032 0.226487 128.964 0.287616 128.91 0.359985V0.359985L116.47 14.79C116.34 14.9343 116.259 15.1165 116.24 15.31L113.86 35.91C113.841 36.0834 113.869 36.2586 113.939 36.4182C114.009 36.5778 114.12 36.7163 114.26 36.82L131.78 49.32C131.946 49.4402 132.145 49.5066 132.35 49.51H132.43L160.17 47.19C160.266 47.1773 160.359 47.1538 160.45 47.12V47.12C160.563 47.0661 160.665 46.9914 160.75 46.9L167 40C167.09 39.8985 167.159 39.7797 167.202 39.6507C167.245 39.5218 167.261 39.3854 167.25 39.25L165.69 23.17ZM132.35 48.53L114.83 36L117.21 15.4L128.61 2.05998L129.54 0.959985L130.24 18.76L139.07 30.22L141.31 39.27L160.09 46.18L157.78 46.38L132.35 48.53ZM160.74 45.48C160.651 45.3931 160.546 45.325 160.43 45.28L142.14 38.55L140 30C139.968 29.8698 139.91 29.7474 139.83 29.64L131.19 18.43L130.52 1.42998L151.24 11.43L151.94 14.23L164.69 23.23L166.23 39.23L160.74 45.48Z" fill="black"/>
<path d="M132.62 47.52L155.62 45.6L141 40.21C140.851 40.1532 140.719 40.062 140.613 39.9437C140.507 39.8255 140.43 39.6836 140.39 39.53L138.2 30.68L129.5 19.38C129.371 19.2212 129.297 19.0245 129.29 18.82L128.69 3.51999L118.15 15.83L115.87 35.56L132.62 47.52Z" fill="black"/>
<path d="M5.25174 17.7361C6.32857 17.2538 7.49488 17.0035 8.6748 17.0017C9.70713 16.9834 10.7366 17.116 11.7306 17.3951C12.5548 17.6318 13.3409 17.9851 14.0651 18.4443C15.4861 19.337 16.6022 20.6406 17.2652 22.1821H15.0225C14.4892 21.2049 13.6885 20.3997 12.7143 19.8608C11.6943 19.2876 10.5396 18.9978 9.3699 19.0214C8.2761 18.9918 7.18759 19.1836 6.1698 19.5853C5.32491 19.9366 4.56477 20.4642 3.94022 21.1329C2.66121 22.5731 1.99324 24.4547 2.07787 26.379C1.98187 28.3003 2.64081 30.183 3.91399 31.6251C4.58105 32.3397 5.39611 32.9002 6.30223 33.2671C7.20835 33.6341 8.18368 33.7988 9.16006 33.7497C10.7853 33.7333 12.3483 33.1221 13.5536 32.0316C14.2005 31.4931 14.7153 30.8136 15.0586 30.0451C15.4019 29.2767 15.5645 28.4398 15.534 27.5987H8.87153V25.7626H17.4357V35.4547H15.534V32.2415C14.5229 33.7912 12.9782 34.9159 11.1929 35.4022C10.3334 35.6025 9.45226 35.695 8.56988 35.6777C7.42381 35.6749 6.29189 35.4244 5.25174 34.9432C4.15968 34.4975 3.17909 33.8169 2.37951 32.9497C0.772238 31.1517 -0.0782527 28.8023 0.0056691 26.3921C-0.0568141 23.9711 0.822385 21.6203 2.45821 19.8345C3.23081 18.9457 4.18286 18.2305 5.25174 17.7361V17.7361Z" fill="black"/>
<path d="M26.5769 35.4547H24.5178V17.2246H33.2525C34.883 17.1454 36.4809 17.6999 37.7117 18.7722C38.2699 19.305 38.7056 19.9527 38.9887 20.6706C39.2717 21.3885 39.3954 22.1593 39.3511 22.9297C39.432 23.9056 39.2013 24.8821 38.6923 25.7186C38.1833 26.5552 37.4221 27.2089 36.5182 27.5856C36.0111 27.8092 35.4842 27.9849 34.9444 28.1102L39.7314 35.4547H37.3182L32.9115 28.4643H26.5769V35.4547ZM26.5769 26.5101H32.8853C33.6586 26.599 34.4414 26.4763 35.1505 26.1553C35.8596 25.8342 36.4682 25.3268 36.9117 24.6871C37.2691 23.9572 37.3868 23.1329 37.2478 22.3321C37.1088 21.5312 36.7204 20.7948 36.1379 20.228C35.2498 19.5229 34.136 19.164 33.0033 19.2181H26.5769V26.5101Z" fill="black"/>
<path d="M62.3028 35.4547H60.0207L57.7911 30.2086H48.7548L46.5252 35.4547H44.2432L51.9811 17.2246H54.6042L62.3028 35.4547ZM57.0567 28.2676L53.332 19.3755L49.6204 28.2676H57.0567Z" fill="black"/>
<path d="M81.8573 17.2246L74.4735 35.4547H72.139L64.7551 17.2246H67.0109L73.3193 33.1202L79.6277 17.2246H81.8573Z" fill="black"/>
<path d="M102.304 35.4547H100.061L97.8319 30.2086H88.7955L86.566 35.4547H84.2839L92.0219 17.2246H94.6449L102.304 35.4547ZM97.0581 28.2676L93.3465 19.3755L89.6218 28.2676H97.0581Z" fill="black"/>
</g>
<defs>
<clipPath id="clip0_501_2">
<rect width="167" height="50" fill="white"/>
</clipPath>
</defs>
</svg>
