<svg width="56" height="51" viewBox="0 0 56 51" fill="none" xmlns="http://www.w3.org/2000/svg">
<path d="M53.4141 23.8579C53.398 23.7148 53.3521 23.5767 53.2793 23.4525C53.2065 23.3282 53.1085 23.2206 52.9916 23.1366L40.1522 14.1098L39.5236 11.5852C39.4863 11.4435 39.4192 11.3114 39.3268 11.1977C39.2344 11.084 39.1188 10.9912 38.9878 10.9257L16.6373 0.0853836H16.5651C16.4661 0.0708634 16.3654 0.0708634 16.2663 0.0853836V0.0853836C16.1384 0.0880987 16.0123 0.116117 15.8954 0.16782H15.8129H15.7202C15.6401 0.215738 15.5701 0.278728 15.5141 0.353301V0.353301L2.69527 15.2227C2.56106 15.3714 2.478 15.5592 2.45826 15.7586L0.0057864 36.9859C-0.0132272 37.1645 0.0148048 37.3451 0.0871081 37.5096C0.159411 37.674 0.273474 37.8168 0.417969 37.9236L18.4715 50.8042C18.6426 50.9281 18.8476 50.9965 19.0588 51H19.1413L47.726 48.6094C47.8246 48.5963 47.9214 48.5721 48.0145 48.5372V48.5372C48.1308 48.4817 48.2357 48.4048 48.3237 48.3105L54.764 41.2004C54.8572 41.0959 54.9281 40.9734 54.9724 40.8405C55.0167 40.7076 55.0334 40.5671 55.0216 40.4276L53.4141 23.8579ZM19.0588 49.9902L1.00533 37.0786L3.4578 15.8513L15.2049 2.10507L16.1633 0.971572L16.8846 19.3136L25.9835 31.1226L28.2917 40.4482L47.6436 47.5686L45.2632 47.7747L19.0588 49.9902ZM48.3134 46.8473C48.2219 46.7577 48.1132 46.6876 47.9939 46.6412L29.147 39.7062L26.9418 30.8959C26.9089 30.7617 26.8493 30.6356 26.7666 30.5249L17.8635 18.9736L17.1731 1.45588L38.5241 11.7604L39.2454 14.6457L52.3837 23.9197L53.9705 40.407L48.3134 46.8473Z" fill="black"/>
<path d="M19.3372 48.9494L43.0376 46.9709L27.9724 41.4168C27.8195 41.3583 27.6827 41.2643 27.5734 41.1424C27.4641 41.0206 27.3854 40.8744 27.3438 40.7161L25.0871 31.5966L16.1222 19.9525C15.9892 19.7888 15.9132 19.5862 15.9058 19.3754L15.2875 3.60953L4.42658 16.2944L2.07715 36.6252L19.3372 48.9494Z" fill="black"/>
<path d="M15.36 3.64L15.99 19.52C15.9928 19.7315 16.0668 19.9358 16.2 20.1L25.2 31.83L27.51 41C27.548 41.1613 27.6254 41.3106 27.7354 41.4345C27.8454 41.5584 27.9844 41.6531 28.14 41.71L43.32 47.29L19.47 49.29L2.08 36.89L4.45 16.42L15.36 3.64ZM16.27 1L3.48 16L1 37.37L19.18 50.37L47.98 48L28.49 40.82L26.17 31.42L17 19.53L16.27 1Z" fill="white"/>
<path d="M17 19.48L16.28 1L17 19.48Z" fill="white"/>
<path d="M18.68 18.87L27.52 30.33C27.6596 30.5224 27.7614 30.7396 27.82 30.97L29.93 39.49L48.57 46.35C48.7735 46.4222 48.9605 46.5344 49.12 46.68L54.38 40.77L52.78 24.14L39.55 14.83L38.87 11.92L18.01 1.84L18.68 18.87Z" fill="white"/>
</svg>
